<svg id="background" xmlns="http://www.w3.org/2000/svg" xmlns:xlink="http://www.w3.org/1999/xlink" viewBox="0 0 2048 1536">
  <defs>
    <style>
      .cls-1 {
        fill: none;
      }

      .cls-2 {
        clip-path: url(#clip-path);
      }

      .cls-3 {
        fill: #f7f7f7;
      }

      .cls-4 {
        fill: #efefef;
      }

      .cls-5 {
        clip-path: url(#clip-path-2);
      }

      .cls-6 {
        fill: #eaeaea;
      }
    </style>
    <clipPath id="clip-path">
      <rect class="cls-1" x="-1942" y="-256" width="1536" height="2048" transform="translate(-406 1942) rotate(90)"/>
    </clipPath>
    <clipPath id="clip-path-2">
      <rect class="cls-1" x="256" y="-256" width="1536" height="2048" transform="translate(1792 -256) rotate(90)"/>
    </clipPath>
  </defs>
  <title>background</title>
  <g class="cls-2">
    <path class="cls-3" d="M-546.04135-1087.07627,425.46709-69.45133a50,50,0,0,1,1.76254,67.10672l-580.07278,675.2815L-832.34306,820.54054-995.35034-99.86388Z"/>
    <path class="cls-3" d="M108.37567,509.9657l231.43988,612.74657a50,50,0,0,1-14.72106,56.04124L-157.62433,1581.9657s-776-40-768-54,382-886,382-886Z"/>
    <path class="cls-4" d="M-647.2591,611.29l782.7999,855.52808-725.22071,359.863s-776.75966,20.50436-769.8733,5.9243S-1047.654,919.56717-1047.654,919.56717Z"/>
  </g>
  <g class="cls-5">
    <path class="cls-3" d="M1651.95865-1087.07627,2623.46709-69.45133a50,50,0,0,1,1.76254,67.10672l-580.07278,675.2815L1365.65694,820.54054,1202.64966-99.86388Z"/>
    <path class="cls-4" d="M1668.5441,453.05756l612-105.2656-136-398.01352s-560-10-558,0S1668.5441,453.05756,1668.5441,453.05756Z"/>
    <path class="cls-3" d="M2306.37567,509.9657l231.43988,612.74657a50,50,0,0,1-14.72106,56.04124L2040.37567,1581.9657s-776-40-768-54,382-886,382-886Z"/>
    <path class="cls-4" d="M1550.7409,611.29l782.7999,855.52808-725.22071,359.863s-776.75966,20.50436-769.8733,5.9243S1150.346,919.56717,1150.346,919.56717Z"/>
    <path class="cls-6" d="M1640.42448-25.84544l316.26216,545.319a50,50,0,0,1-12.34179,64.38514l-667.59346,525.07321-582.03628,35.73168L694.9756,10.18813Z"/>
    <path class="cls-3" d="M-196.5729,1193.22412,1094.6538,634.54464c23.58935-10.20649-18.32348,63.12867-5.83819,85.59526l511.59924,336.24565a50,50,0,0,1,16.015,66.47674L990.14266,2225.5451l-257.06393-54.44638Z"/>
    <path class="cls-4" d="M1620.93932-109.2624,1412.8677,660.62813a50,50,0,0,1-37.20957,35.71667L628.1398,865.87509S11.48581,182.83932,9.61349,156.82982-49.23694-77.46194-39.23706-77.41284,1620.93932-109.2624,1620.93932-109.2624Z"/>
    <path class="cls-3" d="M158.61515-747.36915,1130.1236,270.25579a50,50,0,0,1,1.76253,67.10673L551.81335,1012.644l-679.49991,147.60365L-290.69384,239.84325Z"/>
    <path class="cls-6" d="M258.44866-200.25992l646.441,1242.80355a50,50,0,0,1-16.71927,64.73921l-1180.46,783.043-253.9122-337.44336,98.92859-929.4777Z"/>
    <path class="cls-4" d="M757.28355-619.49072l-403.8621,1005.061a50,50,0,0,1-60.84386,29.224L-426.81529,197.63365-71.854-611.47348Z"/>
    <path class="cls-3" d="M-1393.26969,1028.63015-102.043,469.95066c23.58936-10.20649,6.6471,63.12868-5.83819,85.59526L403.71806,891.79158a50,50,0,0,1,16.015,66.47673L-206.55413,2060.95113l-257.06393-54.44638Z"/>
  </g>
</svg>
