<svg id="Layer_1" data-name="Layer 1" xmlns="http://www.w3.org/2000/svg" viewBox="0 0 148.64088 63.35613">
  <defs>
    <style>
      .cls-1 {
        fill: #c1c1c2;
        fill-rule: evenodd;
      }
    </style>
  </defs>
  <title>logo</title>
  <g>
    <path class="cls-1" d="M0,55.899V31.75458a.314.314,0,0,1,.35526-.3551H2.167a.3143.3143,0,0,1,.35526.3551V53.91131a.12552.12552,0,0,0,.14238.14165H17.11416a.3143.3143,0,0,1,.35529.3551v1.491a.31426.31426,0,0,1-.35529.35577H.35526A.314.314,0,0,1,0,55.899"/>
    <path class="cls-1" d="M11.87771,63.24908a.436.436,0,0,1-.07122-.24872v-1.4557c0-.23632.0588-.35446.17766-.35446h.17763a3.23579,3.23579,0,0,0,1.72286-.39037,2.76024,2.76024,0,0,0,1.01228-1.38518,18.40553,18.40553,0,0,0,.78177-3.05306.16431.16431,0,0,0,.01761-.1247.27511.27511,0,0,1-.01761-.08942L11.16715,38.679l-.03592-.107q0-.284.35529-.284h1.91874a.339.339,0,0,1,.39055.31987l3.12635,13.95383c.02284.07116.047.10642.07052.10642s.04768-.03526.07119-.10642L20.155,38.6079a.36452.36452,0,0,1,.39052-.31987l1.98932.03526a.3276.3276,0,0,1,.26644.107.264.264,0,0,1,.01764.28331l-4.938,19.10364a16.94737,16.94737,0,0,1-1.26115,3.51458,3.47035,3.47035,0,0,1-1.61639,1.5804,7.08529,7.08529,0,0,1-2.80629.44388h-.17763c-.04771,0-.09469-.03589-.14173-.10705"/>
    <path class="cls-1" d="M44.52387,43.93385V55.89932a.314.314,0,0,1-.35527.35513H42.39284a.31377.31377,0,0,1-.35527-.35513V44.14666a4.7668,4.7668,0,0,0-.76412-2.85853,2.37421,2.37421,0,0,0-2.00694-1.04772,2.53208,2.53208,0,0,0-2.13169,1.03075,4.53217,4.53217,0,0,0-.78174,2.80437V55.89932a.314.314,0,0,1-.35526.35513H34.18613a.31357.31357,0,0,1-.3546-.35513V44.14666a4.76659,4.76659,0,0,0-.76415-2.85853,2.34267,2.34267,0,0,0-1.971-1.04772,2.57956,2.57956,0,0,0-2.14934,1.03075,4.45991,4.45991,0,0,0-.79938,2.80437V55.89932a.314.314,0,0,1-.35529.35513H26.016a.31377.31377,0,0,1-.35526-.35513V38.64308a.31356.31356,0,0,1,.35526-.35446h1.7764a.31383.31383,0,0,1,.35529.35446v1.10124a.08092.08092,0,0,0,.0529.08811c.03593.01242.07644-.00522.12409-.05352a4.23476,4.23476,0,0,1,1.59944-1.31405,4.615,4.615,0,0,1,1.95336-.425,4.1598,4.1598,0,0,1,2.34459.656,4.20675,4.20675,0,0,1,1.52758,1.86369.11313.11313,0,0,0,.10644.07246c.04768,0,.08294-.0359.10645-.10706a4.21546,4.21546,0,0,1,1.74114-1.88194,4.80162,4.80162,0,0,1,2.34461-.60317,3.89161,3.89161,0,0,1,3.30329,1.56145,7.08119,7.08119,0,0,1,1.1723,4.33249Z"/>
    <path class="cls-1" d="M51.61014,41.14656a3.5793,3.5793,0,0,0-.83466,2.4675v2.37872a.12508.12508,0,0,0,.14172.14168h5.8262a.12534.12534,0,0,0,.14173-.14168V43.61406a3.53329,3.53329,0,0,0-.85227-2.4675,2.88036,2.88036,0,0,0-2.23814-.94133,2.7825,2.7825,0,0,0-2.18458.94133m7.40667,7.08268H50.9172a.126.126,0,0,0-.14172.14293V50.9644a3.527,3.527,0,0,0,.83466,2.43157,2.77821,2.77821,0,0,0,2.18458.94133,2.85766,2.85766,0,0,0,1.9364-.69261,3.24507,3.24507,0,0,0,1.04755-1.79253.39772.39772,0,0,1,.39055-.31987l1.7764.07119a.34257.34257,0,0,1,.24882.10572.2964.2964,0,0,1,.07119.28461,5.08125,5.08125,0,0,1-1.72285,3.31939,5.57863,5.57863,0,0,1-3.74806,1.22461,5.48465,5.48465,0,0,1-4.03151-1.4903,5.28817,5.28817,0,0,1-1.51-3.94148V43.43651a5.30171,5.30171,0,0,1,1.51-3.92323,6.1852,6.1852,0,0,1,8.09892,0,5.30672,5.30672,0,0,1,1.51,3.92323v4.43827a.31384.31384,0,0,1-.35528.35446"/>
    <path class="cls-1" d="M132.42276,56.15483h-9.98505a1.5781,1.5781,0,1,1,0-3.1562h8.16162L144.994,28.07743,130.59933,3.1562H101.8145L86.27612,28.07743A1.57834,1.57834,0,0,1,83.5338,26.514L99.98061,0h32.44215l16.21812,28.07743-16.21812,28.0774Z"/>
    <path class="cls-1" d="M127.17043,48.35024h-3.74851a1.14455,1.14455,0,1,1,0-2.2891H125.848l10.43993-18.07438L125.848,9.91235H105.41764L94.23335,27.98676a1.1447,1.1447,0,0,1-1.98888-1.13389L104.08761,7.62328h23.08282l11.76239,20.36348L127.17043,48.35024Z"/>
    <path class="cls-1" d="M63.31622,55.77278v-24.348a.31648.31648,0,0,1,.35807-.35806h2.72124a.39385.39385,0,0,1,.39386.28645L70.44161,40.054a.11636.11636,0,0,0,.21481,0l3.72384-8.70085a.39386.39386,0,0,1,.39386-.28645h2.72124a.31648.31648,0,0,1,.35807.35806v24.348a.3165.3165,0,0,1-.35807.35809H74.77412a.3165.3165,0,0,1-.35807-.35809V39.55272q0-.10741-.0537-.1074a.19635.19635,0,0,0-.12533.07161l-3.32994,7.08956q-.10741.25065-.28645.25063a.36793.36793,0,0,1-.35806-.25063l-3.32994-7.12538a.19635.19635,0,0,0-.12533-.07161q-.05373,0-.05372.10743V55.77278a.31649.31649,0,0,1-.35805.35809H63.67429a.3165.3165,0,0,1-.35807-.35809Zm18.15536,0v-24.348a.31647.31647,0,0,1,.358-.35806h2.72126a.31647.31647,0,0,1,.35805.35806v24.348a.31649.31649,0,0,1-.35805.35809H81.82963a.31649.31649,0,0,1-.358-.35809Zm7.12712,0v-24.348a.31647.31647,0,0,1,.35805-.35806H91.7138a.39389.39389,0,0,1,.39388.28645l6.37345,15.79041q.0358.10742.10743.08952t.07161-.12534v-15.683a.31647.31647,0,0,1,.35805-.35806h2.68544a.31648.31648,0,0,1,.35807.35806v24.348a.3165.3165,0,0,1-.35807.35809H98.9108a.3939.3939,0,0,1-.39386-.28648L92.14349,40.054q-.03582-.10746-.10742-.10743t-.07161.10743l.03581,15.71877a.3165.3165,0,0,1-.35808.35809H88.95675a.31649.31649,0,0,1-.35805-.35809Zm17.117,0v-24.348a.31647.31647,0,0,1,.358-.35806h5.87217a6.24809,6.24809,0,0,1,4.7264,1.8261,6.83306,6.83306,0,0,1,1.75448,4.94124V49.36353a6.833,6.833,0,0,1-1.75448,4.94121,6.24811,6.24811,0,0,1-4.7264,1.82613h-5.87217a.31649.31649,0,0,1-.358-.35809Zm3.58059-2.61382,2.61383-.03579a2.63228,2.63228,0,0,0,2.18418-1.05628,4.73,4.73,0,0,0,.85934-2.88238V38.01307a4.65117,4.65117,0,0,0-.82354-2.90029,2.65186,2.65186,0,0,0-2.22-1.07419h-2.61383a.12659.12659,0,0,0-.14321.14322V53.01574a.12659.12659,0,0,0,.14321.14322Z"/>
  </g>
</svg>
